<svg width="24" height="24" viewBox="0 0 24 24" fill="none" xmlns="http://www.w3.org/2000/svg">
<g clip-path="url(#clip0)">
<path d="M9.42857 0V3.42857L7.71429 4.28571L5.14286 1.71429L1.71429 5.14286L4.28571 7.71429L3.42857 9.42857H0V14.5714H3.42857L4.28571 16.2857L1.71429 18.8571L5.14286 22.2857L7.71429 19.7143L9.42857 20.5714V24H14.5714V20.5714L16.2857 19.7143L18.8571 22.2857L22.2857 18.8571L19.7143 16.2857L20.5714 14.5714H24V9.42857H20.5714L19.7143 7.71429L22.2857 5.14286L18.8571 1.71429L16.2857 4.28571L14.5714 3.42857V0H9.42857Z" stroke="black" stroke-linecap="round" stroke-linejoin="round"/>
<path d="M12 15.4286C13.8935 15.4286 15.4286 13.8935 15.4286 12C15.4286 10.1065 13.8935 8.57143 12 8.57143C10.1065 8.57143 8.57143 10.1065 8.57143 12C8.57143 13.8935 10.1065 15.4286 12 15.4286Z" stroke="black" stroke-linecap="round" stroke-linejoin="round"/>
</g>
<defs>
<clipPath id="clip0">
<rect width="24" height="24" fill="white"/>
</clipPath>
</defs>
</svg>
